Patient4_TMGait_0pt7_01_left_17_EMG.mot
version=1
nRows=40
nColumns=33
inDegrees=no
endheader
time	1LAddLong	2LGlutMax	3LGlutMed	4LIliopsoas	5LSemiMemb	6LBicFemLong	7LRecFem	8LVastMed	9LVastLat	10LGasMed	11LTibAnt	12lTibPost	13LPeroneusLong	14LSol	15LExtDigLong	16LFlexDigLong	17RAddLong	18RGlutMax	19RGlutMed	20RIliopsoas	21RSemiMemb	22RBicFemLong	23RRecFem	24RVastMed	25RVastLat	26RGasMed	27RTibAnt	28RTibPost	29RPeroneusLong	30RSol	31RExtDigLong	32RFlexDigLong
20.295	0.017395	0.065002	0.3183	0.006256	0.014191	-0.10239	-0.002594	0.003204	-0.019073	-0.3743	0.014801	-0.20783	0.079041	-0.31708	-0.003357	0.010529	-0.018463	0.27527	-0.2861	-0.12741	0.12405	0.053864	0.050812	-0.7402	-0.233	-0.004883	-0.13901	-0.000153	0.011597	-0.065765	-0.002594	-0.007629
20.296	0.013428	0.041199	0.31494	0.016022	0.021515	-0.12985	0.035858	-0.00473	-0.010986	-0.007324	0.014801	0.52826	-0.054932	-0.58487	0.003204	-0.086975	-0.00946	0.25421	-0.38177	-0.16312	0.11673	0.076141	0.13046	-0.34439	-0.042114	0.009918	-0.10971	0.001526	-0.04837	-0.1648	0.002594	-0.003357
20.297	0.017395	0.040894	0.31464	0.007324	0.026855	-0.080719	0.045929	-0.001831	-0.007782	0.31723	0.017548	0.54642	-0.19211	-0.42786	0.0354	-0.0383	0.001068	0.15732	-0.44205	-0.13901	0.14908	0.061951	0.1149	0.19012	0.058899	0.009918	0.10239	0.001373	0.006104	-0.1442	0.003204	-0.005035
20.298	0.023956	0.001984	0.31357	0.009003	0.017853	-0.045624	0.028839	0.00061	-0.009308	0.49759	0.010986	0.13825	-0.13962	-0.121	0.035706	-0.024261	0.028381	0.093384	-0.10468	-0.063934	0.26703	0.056763	0.082397	0.16403	0.068817	0.004578	-0.065613	-0.000153	0.081177	-0.017242	0.000153	-0.008698
20.299	0.018158	-0.011902	0.33966	0.009613	0.002747	-0.024719	0.027924	-0.001678	0.002289	0.88913	0.007935	-0.58456	-0.071716	0.51529	0.003815	0.076752	0.085449	0.013885	0.23605	0.035095	0.19241	-0.037537	0.11902	0.029449	0.084839	-0.007782	-0.17502	-0.005035	0.071106	0.073242	-0.000916	-0.007324
20.3	0.02121	-0.037689	0.30884	-0.003357	-0.019836	-0.028381	0.061798	-0.000916	-0.007629	1.8759	0.003052	-0.071411	0.033569	0.98343	-0.025787	0.00885	0.032654	-0.007172	0.003204	0.079346	0.025635	-0.032806	0.11673	0.079651	0.10483	-0.008392	-0.023193	-0.005188	0.023651	0.029755	-0.004883	-0.000305
20.301	0.023041	-0.060425	0.27329	0.014648	-0.025635	-0.052643	0.046692	-0.007782	-0.016022	1.7593	0.005646	-0.000153	0.10986	0.72403	-0.016022	-0.003052	0.016479	-0.020905	-0.2562	0.002747	-0.20203	0.055542	0.08194	0.072479	0.56091	-0.006256	-0.009766	0.00061	0.070801	0.053864	0.002899	-0.00351
20.302	0.023651	0.000916	0.27222	0.01297	-0.00351	-0.04303	0.045166	0.008545	0.012207	0.33264	-0.001373	0.27435	0.045013	0.60226	0.003052	0.043182	0.035248	-0.045776	-0.33997	-0.071259	-0.24475	0.10956	0.028229	-0.03952	0.7959	-0.013885	0.10162	-0.000916	0.10117	0.052643	-0.002136	-0.000305
20.303	0.026703	0.035858	0.32959	0.007935	0.021362	-0.028381	0.02655	-0.000458	0.034332	-0.17181	-0.006866	-0.10132	-0.019989	-0.2446	-0.028687	0.15976	0.028534	-0.011597	-0.38345	-0.0354	-0.11429	0.20813	0.14145	-0.23819	0.43976	-0.014496	0.11871	0	0.11551	0.006561	-0.00351	-0.006409
20.304	0.022125	0.047913	0.35828	0.006409	0.016479	-0.02243	-0.002136	0.001068	0.040131	-0.31784	-0.000458	-0.18723	-0.033722	-0.9137	-0.057983	0.070038	-0.040894	-0.18204	-0.31143	-0.019989	-0.056305	0.27557	0.1648	-0.63065	-0.009613	-0.011597	-0.003967	-0.000305	0.10895	0.024261	-0.000458	-0.003815
20.305	0.027771	0.069122	0.40222	0.000458	-0.005951	0.041809	0.007782	0.00351	0.037079	-1.1063	0.007019	-0.071564	0.00946	-1.2379	-0.046082	-0.056305	-0.04776	-0.289	-0.45532	0.018921	-0.071869	0.25665	0.28534	-0.87204	0.17593	-0.00885	-0.09491	-0.000916	0.1207	0	-0.000305	-0.006256
20.306	0.030365	0.068512	0.36499	0.015564	-0.041962	0.083008	0.02243	0.008392	0.031433	-0.98923	0.010071	-0.03067	0.070648	-0.72906	-0.062256	-0.10239	-0.043793	-0.38238	-0.42511	0.027618	-0.09613	0.30151	0.44662	-0.62775	0.056305	-0.00824	0.025177	-0.000458	0.053101	0.011597	-0.004883	-0.00061
20.307	0.031433	0.063629	0.29098	0.002899	-0.035248	-0.003967	0.014801	0.008545	0.032501	-0.65613	0.007782	-0.13245	0.061646	-0.52216	-0.079498	-0.20065	-0.061188	-0.50323	-0.21927	0.003204	-0.052338	0.36591	0.58777	-0.1329	-0.28397	-0.010986	0.092773	-0.004578	0.031128	0.011292	-0.003662	-0.006866
20.308	0.033264	0.048065	0.27298	0.026855	-0.003052	-0.11032	0.010223	0.000153	0.011902	-0.35614	0.010529	0.003815	0.13458	-0.004883	-0.040894	0.036621	-0.069733	-0.55985	-0.2092	0.041199	0.10635	0.40436	0.52445	0.3894	-0.52887	-0.012207	0.20111	0.002594	-0.049438	-0.004272	-0.001068	-0.010071
20.309	0.026398	0.074158	0.34698	0.020599	0.00473	-0.081787	-0.015564	0.009766	0.003815	-0.31372	0.008545	0.12253	0.15564	0.23285	-0.001373	0.062866	-0.084534	-0.67535	-0.17456	0.019836	0.11139	0.40451	0.35461	0.71579	-0.39032	-0.008392	0.30716	-0.00473	-0.17807	0.010071	-0.003662	-0.014954
20.31	0.021057	0.058136	0.29968	-0.001831	0.003052	-0.097198	-0.039825	0.003815	-0.003204	-0.3363	0.022125	-0.016022	0.064392	0.34866	0.018158	-0.33432	-0.045013	-0.67581	-0.041809	0.001068	0.28519	0.46677	0.15976	0.76462	-0.21164	-0.007172	0.2829	-0.000305	-0.34729	-0.024719	-0.00412	-0.012054
20.311	0.025482	0.077362	0.30838	0.003815	0.00473	-0.10834	-0.067291	-0.002289	0.009308	-0.23193	0.0383	0.22354	-0.081024	0.37552	-0.006256	0.41306	-0.015259	-0.4863	-0.10559	0.025635	0.24033	0.46478	-0.083618	0.51239	-0.1767	-0.005493	0.06134	0.001373	-0.063477	-0.00473	-0.000153	-0.00946
20.312	0.021057	0.044556	0.33859	0.009308	0.015564	-0.088043	-0.081787	-0.003662	0.01236	-0.2446	0.02594	-0.25925	0.057831	0.84091	0.02594	-1.0249	0.023956	-0.22247	-0.26718	0.017853	0.17792	0.44678	-0.34927	0.34805	-0.21316	-0.003052	-0.13275	-0.001068	0.068817	0.01297	-0.002594	-0.008545
20.313	0.026398	0.043182	0.34409	-0.005493	0.013733	0.037689	-0.094757	-0.00061	0.01236	-0.2446	0.015411	-0.12039	0.17822	0.9996	0.057678	-0.24231	0.09201	0.031433	-0.22354	-0.061646	0.13855	0.38544	-0.26566	0.44373	-0.28214	-0.002136	-0.10559	0.000458	0.15427	-0.005341	0.000916	-0.006714
20.314	0.016785	0.039215	0.34164	0.012817	-0.016327	0.14145	-0.11948	-0.001831	0.005951	-0.26535	0.015717	0.063782	0.16083	1.1884	0.020142	1.451	0.14908	0.21851	-0.15503	-0.08194	-0.001221	0.34958	-0.099182	0.30792	-0.38406	-0.006561	-0.014954	-0.001984	0.14801	-0.071716	-0.001831	0.001678
20.315	0.025177	0.048828	0.31891	-0.007324	-0.033112	0.070648	-0.1474	-0.00473	0.019379	-0.077972	0.001984	0.078278	0.14038	2.0215	0.019989	-1.2839	0.15442	0.30243	-0.1709	-0.12741	-0.075073	0.42648	-0.17181	-0.38147	-0.52673	-0.007935	0.07782	0.000305	0.14725	-0.099792	0.00351	0.001526
20.316	0.019684	0.097961	0.31418	0.005646	-0.0383	0.068665	-0.14267	0.000305	0.013733	0.15945	-0.001984	0.13351	0.11749	1.6551	-0.021515	0.66467	0.093994	0.3656	-0.22583	-0.18692	-0.19669	0.49667	-0.2887	-0.68176	-0.39764	-0.005035	0.10696	-0.001678	0.18463	-0.063934	-0.003204	-0.001678
20.317	0.023346	0.071106	0.3154	0.029602	-0.021057	0.17914	-0.16068	-0.004883	0.016022	0.056915	-0.021515	-0.0914	0.19287	0.54108	-0.046844	0.28885	-0.023499	0.38803	-0.20966	-0.088196	-0.26062	0.57281	-0.34836	-0.49011	-0.17944	-0.003204	0.098572	-0.000153	0.15884	-0.041046	-0.001221	0.00412
20.318	0.018616	0.088654	0.30228	0.014038	-0.011444	0.041504	-0.16022	0.00061	-0.001678	-0.24262	-0.007019	-0.039978	0.21316	-0.14404	-0.023041	0.16312	-0.054626	0.34622	-0.25803	0.16586	-0.066833	0.54382	-0.33066	-0.24872	0.13687	-0.005951	0.0354	-0.003662	0.027618	-0.050964	-0.005646	-0.002594
20.319	0.017853	0.064087	0.30899	0.00946	-0.01236	-0.19531	-0.168	-0.002136	0.007019	-0.11856	0.006409	0.2153	-0.085602	-0.54367	-0.02243	0.41855	-0.001526	0.23209	-0.19608	0.2475	0.22614	0.46555	-0.28824	-0.032654	0.27985	0.001526	-0.050507	-0.002899	-0.12573	-0.03006	-0.009766	-0.000458
20.32	0.022278	0.053406	0.30716	0.012207	0.038452	-0.16754	-0.15442	-0.003204	0.009613	0.37247	0.007477	-0.11093	-0.19486	-1.1478	-0.030212	-0.27176	0.025635	0.14511	-0.16968	0.18097	0.48859	0.42557	-0.016785	-0.10788	-0.13565	-0.008545	-0.050964	-0.003815	-0.11643	-0.051117	-0.000916	-0.005188
20.321	0.076141	0.041046	0.31433	0.014191	0.051117	-0.088806	-0.15671	-0.000458	-0.010986	0.37399	0.013733	0.13275	-0.27695	-0.75394	0.025177	-0.83115	0.02533	0.14297	-0.1619	0.10132	0.26474	0.61966	0.024719	-0.092773	-0.19608	-0.009766	0.17746	-0.010071	-0.11398	-0.095673	-0.005646	-0.006409
20.322	-0.02655	0.011902	0.30868	0.016785	0.013428	0.021362	-0.1445	0.00412	-0.005188	-0.21606	0.013123	-0.24506	-0.25742	-0.85541	0.062103	0.42465	0.020752	0.065002	-0.1796	0.035706	-0.056763	0.8316	0.1944	-0.13031	-0.16205	-0.01236	0.42313	-0.005798	0.07309	-0.1738	-0.007172	-0.00824
20.323	0.011139	0.001831	0.30426	0.006866	-0.012665	0.045929	-0.15854	0.010529	-0.00412	-0.33539	-0.001984	0.48721	-0.072021	-0.77194	0.045929	0.14343	0.057373	-0.049133	-0.24918	-0.018005	-0.084381	1.0146	0.26443	-0.20935	0.25543	-0.014191	0.48202	0.000458	-0.034943	-0.22476	0.001831	-0.005798
20.324	0.002747	-0.01297	0.29907	0.011597	-0.000458	0.03006	-0.17349	0.006714	-0.006256	-0.21942	0.01297	-0.22675	0.079193	-0.75012	0.065308	0.31632	0.052032	0.079193	-0.23666	-0.023804	-0.11963	0.9314	0.30029	-0.088348	0.45197	-0.003052	0.5426	-0.004425	-0.32272	-0.28717	-0.007324	0.004578
20.325	0.014801	-0.038147	0.29083	0.006714	0.033264	-0.023651	-0.18936	-0.00412	0.005951	-0.12787	0.02533	-0.30045	-0.005035	-1.088	0.041504	0.43854	0.004272	0.079803	-0.22186	-0.059357	-0.023804	0.81833	0.19394	0.011139	0.42602	0.003052	0.41153	-0.002289	-0.44098	-0.25223	-0.00473	-0.00946
20.326	0.022278	-0.023956	0.31372	0.004425	0.027008	-0.059814	-0.18326	0.001831	0.010834	-0.12589	0.029297	0.070801	-0.19867	-0.19165	0.024872	-0.10422	-0.083923	0.089111	-0.17838	-0.057678	0.25742	0.70587	0.11856	0.030975	0.20432	0.007172	0.11124	0.000153	-0.57388	-0.29617	-0.004425	-0.000458
20.327	0.026093	-0.031586	0.31509	0.00885	0.024719	0.001373	-0.17899	0.005035	0.003357	0.35446	0.03418	-0.35294	-0.17303	-0.44327	-0.042877	-0.33096	-0.023346	0.15381	-0.19974	-0.097961	0.30868	0.47669	0.15762	-0.13153	0.070953	0.001526	-0.17151	0.001221	-0.31204	-0.25116	-0.001678	0.001373
20.328	0.019379	-0.044098	0.30045	0.003662	-0.000153	0.08728	-0.17319	0.007172	-0.020905	0.84351	0.007782	-0.054474	-0.11108	-0.86929	-0.010529	-0.60608	0.046082	0.23178	-0.18204	-0.091095	0.13504	0.31509	0.10513	-0.16937	0.017853	-0.000305	-0.23529	0.000305	0.026398	-0.22873	-0.003052	0.000916
20.329	0.01297	-0.066833	0.2861	-0.011902	-0.006714	0.060577	-0.16785	0	-0.002747	0.4158	-0.016022	0.55573	0.11002	-0.89859	0.00885	-0.21835	0.09552	0.26367	-0.24094	-0.025177	0.15274	0.26596	0.02655	-0.14893	0.036011	0.005493	-0.027466	0.002289	0.12558	-0.17136	-0.001068	0.003204
20.33	0.018921	-0.063934	0.31281	0.002899	0.009766	0.020447	-0.18356	-0.002441	0.001221	0.21072	-0.008545	-0.059662	0.18845	-0.36453	-0.041962	-0.49911	0.071106	0.23392	-0.2388	-0.034027	0.15015	0.14893	-0.038147	-0.036621	-0.10391	-0.002899	-0.29938	-0.00061	-0.040588	-0.003204	0.004578	0.006714
20.331	0.021667	-0.10574	0.29343	-0.000916	0.023956	-0.079498	-0.16373	-0.005798	-0.010376	-0.19577	0.007782	-0.21957	0.19577	0.072632	-0.056305	0.14816	0.03006	0.19257	0.057373	-0.03418	0.11887	0.20508	-0.064545	-0.1651	-0.2565	-0.007324	-0.4895	-0.006409	0.61523	0.12726	-0.003052	0.006409
20.332	0.013275	-0.09903	0.28381	0.007629	0.018616	-0.037689	-0.16342	0.005035	-0.016327	0.057526	0.018158	-0.11337	0.36713	0.88943	-0.015564	0.13382	-0.00351	0.055695	0.12375	-0.002747	0.10284	0.28778	0.062714	0.032959	-0.32028	0.003967	-0.44784	-0.002747	0.73776	0.1506	0.000153	-0.000458
20.333	0.021362	-0.10437	0.28488	-0.002441	0.015259	-0.038452	-0.15808	0.001831	-0.012665	0.27451	0.014191	0.54153	0.17502	1.376	0.048828	-0.29678	-0.018311	-0.20721	-0.072021	-0.036316	-0.36926	0.39307	0.23102	0.2092	-0.14435	-0.00061	-0.24368	-0.010376	0.18204	0.18677	-0.003357	-0.000763
20.334	0.022888	-0.041046	0.31387	0.011902	0.036011	-0.081329	-0.16815	-0.001221	-0.008087	-0.35385	0.014954	0.66544	-0.1062	0.92392	0.077362	0.22858	-0.018921	-0.28427	-0.26504	-0.074921	0.020752	0.31479	0.27435	0.25436	-0.10086	-0.007477	0.046082	-0.005798	-0.027313	0.13062	-0.003052	-0.000916
